<?xml version="1.0" encoding="utf-8"?>
<!-- Generator: Adobe Illustrator 19.2.1, SVG Export Plug-In . SVG Version: 6.00 Build 0)  -->
<svg version="1.1" id="Layer_1" xmlns="http://www.w3.org/2000/svg" xmlns:xlink="http://www.w3.org/1999/xlink" x="0px" y="0px"
	 width="400px" height="400px" viewBox="0 0 400 400" style="enable-background:new 0 0 400 400;" xml:space="preserve">
<style type="text/css">
	.st0{fill:url(#SVGID_1_);}
</style>
<linearGradient id="SVGID_1_" gradientUnits="userSpaceOnUse" x1="14.4665" y1="206.6879" x2="401.0907" y2="206.6879">
	<stop  offset="0" style="stop-color:#00FFFB"/>
	<stop  offset="1" style="stop-color:#9300BF"/>
</linearGradient>
<path class="st0" d="M207.8,13.4C101,13.4,14.5,99.9,14.5,206.7S101,400,207.8,400s193.3-86.5,193.3-193.3S314.5,13.4,207.8,13.4z
	 M184.5,58.8h46.6l23.3,40.3l-23.3,40.3h-46.6l-23.3-40.3L184.5,58.8z M50.2,184.2l31-53.7h62l31,53.7l-31,53.7h-62L50.2,184.2z
	 M271.4,363.5h-86.5l-43.2-74.9l43.2-74.9h86.5l43.2,74.9L271.4,363.5z"/>
</svg>
